<svg version="1.1" id="Layer_1" xmlns="http://www.w3.org/2000/svg" xmlns:xlink="http://www.w3.org/1999/xlink" x="0px" y="0px"
	 width="100%" viewBox="0 0 428 428" enable-background="new 0 0 428 428" xml:space="preserve">
<path fill="#FFFFFF" opacity="1.000000" stroke="none" 
	d="
M280.000000,429.000000 
	C186.666672,429.000000 93.833359,429.000000 1.000025,429.000000 
	C1.000017,286.333374 1.000017,143.666718 1.000008,1.000063 
	C143.666626,1.000042 286.333252,1.000042 428.999908,1.000021 
	C428.999939,143.666611 428.999939,286.333221 428.999969,428.999908 
	C379.500000,429.000000 330.000000,429.000000 280.000000,429.000000 
M229.737778,112.786697 
	C227.785217,112.059410 225.744644,111.507179 223.894211,110.576775 
	C210.642593,103.913773 196.151382,101.600517 181.801132,99.414375 
	C170.424194,97.681198 158.765381,97.338470 147.226578,97.272171 
	C137.887482,97.218506 128.341660,97.541794 119.250694,99.438545 
	C109.200325,101.535454 99.282555,105.404228 91.402847,112.272385 
	C85.644409,117.291565 79.588661,122.978905 76.410912,129.671921 
	C73.088707,136.669174 69.900391,141.982941 61.956318,143.395370 
	C60.766392,143.606949 59.265644,144.399185 58.706783,145.378326 
	C57.247837,147.934464 55.874081,150.665390 55.256737,153.498795 
	C55.071690,154.348114 57.339802,156.501801 58.742573,156.787216 
	C63.533615,157.761963 68.427887,158.292252 73.304558,158.769547 
	C82.317345,159.651703 91.345566,160.376251 100.367317,161.166809 
	C100.865082,161.210419 101.376999,161.196609 101.858055,161.311325 
	C112.404137,163.825851 123.053802,165.983902 133.459671,168.986359 
	C143.652328,171.927307 153.638443,175.615845 163.602112,179.283478 
	C165.050690,179.816696 166.869217,182.100357 166.813858,183.507050 
	C166.503342,191.398224 169.537659,198.253601 173.166260,204.795181 
	C176.022522,209.944366 178.722137,215.557693 184.806229,217.981598 
	C188.262543,219.358627 191.950684,220.857300 193.425644,215.608643 
	C195.426346,208.489151 197.119736,201.283630 198.981415,194.124496 
	C199.595505,191.763016 200.322693,189.430923 200.998169,187.085403 
	C201.533371,187.224014 202.068573,187.362610 202.603760,187.501221 
	C202.699295,188.611374 202.620789,189.772461 202.927490,190.820831 
	C203.520584,192.848145 203.811996,195.369308 205.190399,196.652344 
	C206.704559,198.061752 209.359802,198.176315 211.419418,199.079575 
	C227.793533,206.260544 243.000671,215.421295 256.314636,227.352142 
	C269.644470,239.297241 280.929932,252.993362 289.918518,268.611572 
	C297.474335,281.740173 301.994812,296.021393 306.642853,310.242188 
	C307.783051,313.730621 308.445862,317.988281 303.664520,321.069153 
	C294.175476,327.183319 286.145844,334.931396 281.673920,345.667847 
	C279.691345,350.427673 284.290405,357.246124 289.499756,356.941589 
	C292.356995,356.774597 295.125916,355.361237 297.992950,355.054260 
	C315.760712,353.152039 330.373535,359.180115 341.753723,372.946716 
	C343.906250,375.550690 345.665527,378.491516 347.913330,381.001984 
	C350.554199,383.951538 353.265839,383.645050 354.705139,380.055145 
	C355.953156,376.942383 357.389618,373.335358 356.921783,370.220276 
	C355.869629,363.214111 354.278473,356.158936 351.822784,349.524963 
	C348.431702,340.363922 341.149200,333.847626 334.406708,327.072784 
	C331.078888,323.729004 327.898163,320.039368 322.690552,326.848846 
	C323.071991,324.005371 322.900787,322.698090 323.423431,321.790192 
	C328.043182,313.764801 330.923889,305.203308 333.537994,296.281372 
	C336.853424,284.965759 337.179626,273.441406 338.534760,262.002258 
	C339.154327,256.772186 337.352905,251.301956 337.226837,245.927109 
	C336.967651,234.874924 334.360229,224.364349 331.164032,213.864838 
	C326.448822,198.375275 319.084442,184.267487 309.696533,171.207428 
	C298.670593,155.868591 284.238617,144.067734 269.110870,133.033249 
	C268.083496,132.283875 267.124481,130.930740 266.879913,129.709015 
	C265.959442,125.111130 269.069061,122.901176 272.521942,120.990547 
	C279.945892,116.882568 287.696472,114.242653 296.384766,114.749123 
	C297.859253,114.835091 299.436615,113.156227 300.966431,112.292709 
	C299.658447,110.616890 298.644501,108.481567 296.955688,107.400970 
	C295.420532,106.418716 293.121826,106.701965 291.211304,106.222023 
	C281.947174,103.894829 272.807800,100.806152 263.413025,99.348938 
	C256.090424,98.213135 248.424316,98.635391 240.974319,99.200928 
	C235.732040,99.598885 230.597946,101.402855 226.980927,106.052536 
	C229.384567,108.314636 231.583588,110.384163 234.284714,112.926231 
	C232.465149,112.926231 231.488510,112.926231 229.737778,112.786697 
z"/>
<path fill="#4CA8F8" opacity="1.000000" stroke="none" 
	d="
M230.124832,112.856461 
	C231.488510,112.926231 232.465149,112.926231 234.284714,112.926231 
	C231.583588,110.384163 229.384567,108.314636 226.980927,106.052536 
	C230.597946,101.402855 235.732040,99.598885 240.974319,99.200928 
	C248.424316,98.635391 256.090424,98.213135 263.413025,99.348938 
	C272.807800,100.806152 281.947174,103.894829 291.211304,106.222023 
	C293.121826,106.701965 295.420532,106.418716 296.955688,107.400970 
	C298.644501,108.481567 299.658447,110.616890 300.966431,112.292709 
	C299.436615,113.156227 297.859253,114.835091 296.384766,114.749123 
	C287.696472,114.242653 279.945892,116.882568 272.521942,120.990547 
	C269.069061,122.901176 265.959442,125.111130 266.879913,129.709015 
	C267.124481,130.930740 268.083496,132.283875 269.110870,133.033249 
	C284.238617,144.067734 298.670593,155.868591 309.696533,171.207428 
	C319.084442,184.267487 326.448822,198.375275 331.164032,213.864838 
	C334.360229,224.364349 336.967651,234.874924 337.226837,245.927109 
	C337.352905,251.301956 339.154327,256.772186 338.534760,262.002258 
	C337.179626,273.441406 336.853424,284.965759 333.537994,296.281372 
	C330.923889,305.203308 328.043182,313.764801 323.423431,321.790192 
	C322.900787,322.698090 323.071991,324.005371 322.690552,326.848846 
	C327.898163,320.039368 331.078888,323.729004 334.406708,327.072784 
	C341.149200,333.847626 348.431702,340.363922 351.822784,349.524963 
	C354.278473,356.158936 355.869629,363.214111 356.921783,370.220276 
	C357.389618,373.335358 355.953156,376.942383 354.705139,380.055145 
	C353.265839,383.645050 350.554199,383.951538 347.913330,381.001984 
	C345.665527,378.491516 343.906250,375.550690 341.753723,372.946716 
	C330.373535,359.180115 315.760712,353.152039 297.992950,355.054260 
	C295.125916,355.361237 292.356995,356.774597 289.499756,356.941589 
	C284.290405,357.246124 279.691345,350.427673 281.673920,345.667847 
	C286.145844,334.931396 294.175476,327.183319 303.664520,321.069153 
	C308.445862,317.988281 307.783051,313.730621 306.642853,310.242188 
	C301.994812,296.021393 297.474335,281.740173 289.918518,268.611572 
	C280.929932,252.993362 269.644470,239.297241 256.314636,227.352142 
	C243.000671,215.421295 227.793533,206.260544 211.419418,199.079575 
	C209.359802,198.176315 206.704559,198.061752 205.190399,196.652344 
	C203.811996,195.369308 203.520584,192.848145 202.927490,190.820831 
	C202.620789,189.772461 202.699295,188.611374 202.603760,187.501221 
	C202.068573,187.362610 201.533371,187.224014 200.998169,187.085403 
	C200.322693,189.430923 199.595505,191.763016 198.981415,194.124496 
	C197.119736,201.283630 195.426346,208.489151 193.425644,215.608643 
	C191.950684,220.857300 188.262543,219.358627 184.806229,217.981598 
	C178.722137,215.557693 176.022522,209.944366 173.166260,204.795181 
	C169.537659,198.253601 166.503342,191.398224 166.813858,183.507050 
	C166.869217,182.100357 165.050690,179.816696 163.602112,179.283478 
	C153.638443,175.615845 143.652328,171.927307 133.459671,168.986359 
	C123.053802,165.983902 112.404137,163.825851 101.858055,161.311325 
	C101.376999,161.196609 100.865082,161.210419 100.367317,161.166809 
	C91.345566,160.376251 82.317345,159.651703 73.304558,158.769547 
	C68.427887,158.292252 63.533615,157.761963 58.742573,156.787216 
	C57.339802,156.501801 55.071690,154.348114 55.256737,153.498795 
	C55.874081,150.665390 57.247837,147.934464 58.706783,145.378326 
	C59.265644,144.399185 60.766392,143.606949 61.956318,143.395370 
	C69.900391,141.982941 73.088707,136.669174 76.410912,129.671921 
	C79.588661,122.978905 85.644409,117.291565 91.402847,112.272385 
	C99.282555,105.404228 109.200325,101.535454 119.250694,99.438545 
	C128.341660,97.541794 137.887482,97.218506 147.226578,97.272171 
	C158.765381,97.338470 170.424194,97.681198 181.801132,99.414375 
	C196.151382,101.600517 210.642593,103.913773 223.894211,110.576775 
	C225.744644,111.507179 227.785217,112.059410 230.124832,112.856461 
z"/>
</svg>